<mxfile host="app.diagrams.net" modified="2024-04-23T14:39:03.925Z" agent="Mozilla/5.0 (Macintosh; Intel Mac OS X 10_15_7) AppleWebKit/605.1.15 (KHTML, like Gecko) Version/16.5.2 Safari/605.1.15" version="24.2.8" etag="dwmefb8fJPIUzVLtdv4i" type="github">
  <diagram name="Seite-1" id="D1guESdu55M4Z_2RT6Xn">
    <mxGraphModel>
      <root>
        <mxCell id="0" />
        <mxCell id="1" parent="0" />
      </root>
    </mxGraphModel>
  </diagram>
</mxfile>
